<!--?xml version="1.0" standalone="no"?-->
              <svg id="sw-js-blob-svg" viewBox="0 0 100 100" xmlns="http://www.w3.org/2000/svg" version="1.1">
                    <defs> 
                        <linearGradient id="sw-gradient" x1="0" x2="1" y1="1" y2="0">
                            <stop id="stop1" stop-color="#683301" offset="0%"></stop>
                            <stop id="stop2" stop-color="#bf894c" offset="100%"></stop>
                        </linearGradient>
                    </defs>
                <path fill="url(#sw-gradient)" d="M19.6,-30.7C26.7,-29.9,34.6,-27.2,38.9,-21.8C43.3,-16.4,44.1,-8.2,43.4,-0.4C42.7,7.4,40.5,14.8,36,19.8C31.4,24.9,24.5,27.7,18.1,29.1C11.7,30.4,5.9,30.4,-1,32.1C-7.8,33.8,-15.7,37.3,-21.8,35.8C-28,34.3,-32.5,27.8,-35,21C-37.6,14.2,-38.2,7.1,-36.9,0.8C-35.5,-5.6,-32.2,-11.1,-29.8,-18.1C-27.3,-25.1,-25.7,-33.5,-20.9,-35.6C-16.1,-37.7,-8.1,-33.5,-0.9,-32C6.3,-30.4,12.5,-31.5,19.6,-30.7Z" width="100%" height="100%" transform="translate(50 50)" stroke-width="0" style="transition: 0.3s;"></path>
              </svg>